<svg width="20" height="20" viewBox="0 0 20 20" fill="none" xmlns="http://www.w3.org/2000/svg">
<path fill-rule="evenodd" clip-rule="evenodd" d="M0.833344 9.79229C0.833344 9.62653 0.899191 9.46756 1.0164 9.35035C1.13361 9.23314 1.29258 9.16729 1.45834 9.16729H16.1996L12.2658 5.23479C12.1485 5.11744 12.0826 4.95826 12.0826 4.79229C12.0826 4.62632 12.1485 4.46715 12.2658 4.34979C12.3832 4.23243 12.5424 4.1665 12.7083 4.1665C12.8743 4.1665 13.0335 4.23243 13.1508 4.34979L18.1508 9.34979C18.209 9.40785 18.2552 9.47682 18.2867 9.55275C18.3182 9.62868 18.3345 9.71008 18.3345 9.79229C18.3345 9.8745 18.3182 9.9559 18.2867 10.0318C18.2552 10.1078 18.209 10.1767 18.1508 10.2348L13.1508 15.2348C13.0335 15.3521 12.8743 15.4181 12.7083 15.4181C12.5424 15.4181 12.3832 15.3521 12.2658 15.2348C12.1485 15.1174 12.0826 14.9583 12.0826 14.7923C12.0826 14.6263 12.1485 14.4672 12.2658 14.3498L16.1996 10.4173H1.45834C1.29258 10.4173 1.13361 10.3514 1.0164 10.2342C0.899191 10.117 0.833344 9.95805 0.833344 9.79229Z" fill="#370FA9"/>
</svg>
