<svg width="66" height="66" viewBox="0 0 66 66" fill="none" xmlns="http://www.w3.org/2000/svg">
<g filter="url(#filter0_d_45_542)">
<circle cx="33" cy="30" r="20" fill="white"/>
</g>
<path d="M24.875 21.25C24.7092 21.25 24.5503 21.3158 24.4331 21.4331C24.3158 21.5503 24.25 21.7092 24.25 21.875V25.625C24.25 25.7908 24.1842 25.9497 24.0669 26.0669C23.9497 26.1842 23.7908 26.25 23.625 26.25C23.4592 26.25 23.3003 26.1842 23.1831 26.0669C23.0658 25.9497 23 25.7908 23 25.625V21.875C23 21.3777 23.1975 20.9008 23.5492 20.5492C23.9008 20.1975 24.3777 20 24.875 20H28.625C28.7908 20 28.9497 20.0658 29.0669 20.1831C29.1842 20.3003 29.25 20.4592 29.25 20.625C29.25 20.7908 29.1842 20.9497 29.0669 21.0669C28.9497 21.1842 28.7908 21.25 28.625 21.25H24.875ZM36.75 20.625C36.75 20.4592 36.8158 20.3003 36.9331 20.1831C37.0503 20.0658 37.2092 20 37.375 20H41.125C41.6223 20 42.0992 20.1975 42.4508 20.5492C42.8025 20.9008 43 21.3777 43 21.875V25.625C43 25.7908 42.9342 25.9497 42.8169 26.0669C42.6997 26.1842 42.5408 26.25 42.375 26.25C42.2092 26.25 42.0503 26.1842 41.9331 26.0669C41.8158 25.9497 41.75 25.7908 41.75 25.625V21.875C41.75 21.7092 41.6842 21.5503 41.5669 21.4331C41.4497 21.3158 41.2908 21.25 41.125 21.25H37.375C37.2092 21.25 37.0503 21.1842 36.9331 21.0669C36.8158 20.9497 36.75 20.7908 36.75 20.625ZM23.625 33.75C23.7908 33.75 23.9497 33.8158 24.0669 33.9331C24.1842 34.0503 24.25 34.2092 24.25 34.375V38.125C24.25 38.2908 24.3158 38.4497 24.4331 38.5669C24.5503 38.6842 24.7092 38.75 24.875 38.75H28.625C28.7908 38.75 28.9497 38.8158 29.0669 38.9331C29.1842 39.0503 29.25 39.2092 29.25 39.375C29.25 39.5408 29.1842 39.6997 29.0669 39.8169C28.9497 39.9342 28.7908 40 28.625 40H24.875C24.3777 40 23.9008 39.8025 23.5492 39.4508C23.1975 39.0992 23 38.6223 23 38.125V34.375C23 34.2092 23.0658 34.0503 23.1831 33.9331C23.3003 33.8158 23.4592 33.75 23.625 33.75ZM42.375 33.75C42.5408 33.75 42.6997 33.8158 42.8169 33.9331C42.9342 34.0503 43 34.2092 43 34.375V38.125C43 38.6223 42.8025 39.0992 42.4508 39.4508C42.0992 39.8025 41.6223 40 41.125 40H37.375C37.2092 40 37.0503 39.9342 36.9331 39.8169C36.8158 39.6997 36.75 39.5408 36.75 39.375C36.75 39.2092 36.8158 39.0503 36.9331 38.9331C37.0503 38.8158 37.2092 38.75 37.375 38.75H41.125C41.2908 38.75 41.4497 38.6842 41.5669 38.5669C41.6842 38.4497 41.75 38.2908 41.75 38.125V34.375C41.75 34.2092 41.8158 34.0503 41.9331 33.9331C42.0503 33.8158 42.2092 33.75 42.375 33.75Z" fill="#370FA9"/>
<path d="M26.75 37.5C26.75 37.5 25.5 37.5 25.5 36.25C25.5 35 26.75 31.25 33 31.25C39.25 31.25 40.5 35 40.5 36.25C40.5 37.5 39.25 37.5 39.25 37.5H26.75ZM36.75 26.25C36.75 27.2446 36.3549 28.1984 35.6517 28.9017C34.9484 29.6049 33.9946 30 33 30C32.0054 30 31.0516 29.6049 30.3483 28.9017C29.6451 28.1984 29.25 27.2446 29.25 26.25C29.25 25.2554 29.6451 24.3016 30.3483 23.5983C31.0516 22.8951 32.0054 22.5 33 22.5C33.9946 22.5 34.9484 22.8951 35.6517 23.5983C36.3549 24.3016 36.75 25.2554 36.75 26.25Z" fill="#370FA9"/>
<defs>
<filter id="filter0_d_45_542" x="0" y="0" width="66" height="66" filterUnits="userSpaceOnUse" color-interpolation-filters="sRGB">
<feFlood flood-opacity="0" result="BackgroundImageFix"/>
<feColorMatrix in="SourceAlpha" type="matrix" values="0 0 0 0 0 0 0 0 0 0 0 0 0 0 0 0 0 0 127 0" result="hardAlpha"/>
<feOffset dy="3"/>
<feGaussianBlur stdDeviation="6.5"/>
<feColorMatrix type="matrix" values="0 0 0 0 0.490196 0 0 0 0 0.501961 0 0 0 0 0.792157 0 0 0 0.2 0"/>
<feBlend mode="normal" in2="BackgroundImageFix" result="effect1_dropShadow_45_542"/>
<feBlend mode="normal" in="SourceGraphic" in2="effect1_dropShadow_45_542" result="shape"/>
</filter>
</defs>
</svg>
