<svg width="180" height="40" viewBox="0 0 180 40" fill="none" xmlns="http://www.w3.org/2000/svg">
<path d="M1.08994 31.0561C0.770224 31.0561 0.508639 30.9546 0.305183 30.7517C0.101728 30.5488 0 30.288 0 29.9691V1.70826C0 1.38942 0.101728 1.12855 0.305183 0.925655C0.508639 0.722755 0.770224 0.621306 1.08994 0.621306H5.92927C6.24899 0.621306 6.51057 0.722755 6.71403 0.925655C6.91748 1.12855 7.01921 1.38942 7.01921 1.70826V25.23H20.5345C20.8542 25.23 21.1158 25.3315 21.3192 25.5343C21.5227 25.7372 21.6244 25.9981 21.6244 26.317V29.9691C21.6244 30.288 21.5227 30.5488 21.3192 30.7517C21.1158 30.9546 20.8542 31.0561 20.5345 31.0561H1.08994Z" fill="#370FA9"/>
<path d="M35.0102 31.4909C31.6677 31.4909 29.0083 30.5633 27.0319 28.7083C25.0845 26.8532 24.0527 24.1575 23.9364 20.6213C23.9364 20.3894 23.9364 20.0851 23.9364 19.7083C23.9364 19.3025 23.9364 18.9836 23.9364 18.7517C24.0527 16.5199 24.5613 14.6068 25.4623 13.0126C26.3634 11.3894 27.6277 10.1575 29.2553 9.31696C30.883 8.44739 32.7867 8.01261 34.9666 8.01261C37.4081 8.01261 39.4426 8.51986 41.0703 9.53435C42.727 10.5199 43.9623 11.8822 44.7761 13.6213C45.619 15.3315 46.0404 17.3025 46.0404 19.5343V20.5343C46.0404 20.8242 45.9241 21.0706 45.6916 21.2735C45.4882 21.4764 45.2411 21.5778 44.9505 21.5778H30.6941C30.6941 21.6068 30.6941 21.6648 30.6941 21.7517C30.6941 21.8097 30.6941 21.8677 30.6941 21.9257C30.7231 22.8532 30.8975 23.7083 31.2172 24.4909C31.566 25.2445 32.0456 25.8532 32.6559 26.317C33.2954 26.7807 34.0511 27.0126 34.923 27.0126C35.6496 27.0126 36.2455 26.9112 36.7105 26.7083C37.1756 26.5054 37.5534 26.259 37.8441 25.9691C38.1638 25.6793 38.3963 25.4329 38.5416 25.23C38.8032 24.9401 39.0067 24.7662 39.152 24.7083C39.3264 24.6213 39.588 24.5778 39.9367 24.5778H44.4709C44.7615 24.5778 44.9941 24.6648 45.1685 24.8387C45.3719 24.9836 45.4591 25.201 45.43 25.4909C45.401 25.9546 45.1539 26.5343 44.6889 27.23C44.2529 27.8967 43.5989 28.5633 42.727 29.23C41.855 29.8677 40.7651 30.4039 39.4572 30.8387C38.1783 31.2735 36.696 31.4909 35.0102 31.4909ZM30.6941 17.6213H39.2392V17.5343C39.2392 16.4909 39.0648 15.5923 38.716 14.8387C38.3963 14.0561 37.9167 13.4474 37.2773 13.0126C36.6379 12.5778 35.8676 12.3604 34.9666 12.3604C34.0656 12.3604 33.2954 12.5778 32.6559 13.0126C32.0165 13.4474 31.5224 14.0561 31.1736 14.8387C30.8539 15.5923 30.6941 16.4909 30.6941 17.5343V17.6213Z" fill="#370FA9"/>
<path d="M57.0689 31.4909C55.5284 31.4909 54.1479 31.201 52.9271 30.6213C51.7064 30.0126 50.7327 29.201 50.0061 28.1865C49.2794 27.172 48.9161 26.0416 48.9161 24.7952C48.9161 22.7372 49.7445 21.1141 51.4012 19.9257C53.087 18.7372 55.2959 17.9257 58.028 17.4909L63.7393 16.6648V15.8822C63.7393 14.7517 63.4777 13.8822 62.9546 13.2735C62.4314 12.6648 61.5158 12.3604 60.2079 12.3604C59.2488 12.3604 58.4785 12.5488 57.8972 12.9257C57.3159 13.3025 56.8654 13.7952 56.5457 14.4039C56.3132 14.7807 55.9789 14.9691 55.543 14.9691H51.4012C51.0815 14.9691 50.8344 14.8822 50.66 14.7083C50.4857 14.5054 50.413 14.2735 50.4421 14.0126C50.4421 13.5199 50.631 12.9401 51.0088 12.2735C51.3867 11.6068 51.968 10.9546 52.7527 10.317C53.5375 9.65029 54.5402 9.09957 55.761 8.66478C56.9817 8.23 58.4785 8.01261 60.2515 8.01261C62.0826 8.01261 63.6521 8.23 64.96 8.66478C66.268 9.09957 67.3143 9.70826 68.0991 10.4909C68.8838 11.2735 69.4651 12.1865 69.843 13.23C70.2208 14.2445 70.4097 15.3459 70.4097 16.5343V29.9691C70.4097 30.288 70.308 30.5488 70.1046 30.7517C69.9011 30.9546 69.6395 31.0561 69.3198 31.0561H65.0472C64.7566 31.0561 64.5095 30.9546 64.3061 30.7517C64.1026 30.5488 64.0009 30.288 64.0009 29.9691V28.3604C63.6231 28.9112 63.1144 29.4329 62.475 29.9257C61.8356 30.3894 61.0653 30.7662 60.1643 31.0561C59.2924 31.3459 58.2606 31.4909 57.0689 31.4909ZM58.8128 26.9691C59.7719 26.9691 60.6294 26.7662 61.385 26.3604C62.1407 25.9546 62.7366 25.3314 63.1725 24.4909C63.6085 23.6503 63.8265 22.5923 63.8265 21.317V20.5778L59.7719 21.23C58.2024 21.4909 57.0544 21.8822 56.3277 22.4039C55.6011 22.9257 55.2378 23.5633 55.2378 24.317C55.2378 24.8677 55.3976 25.3459 55.7174 25.7517C56.0661 26.1575 56.5167 26.4619 57.0689 26.6648C57.6211 26.8677 58.2024 26.9691 58.8128 26.9691Z" fill="#370FA9"/>
<path d="M84.1028 31.4909C82.6495 31.4909 81.3561 31.259 80.2226 30.7952C79.0891 30.3025 78.1299 29.6068 77.3452 28.7083C76.5604 27.7807 75.9646 26.6938 75.5577 25.4474C75.1508 24.172 74.9037 22.7662 74.8165 21.23C74.7874 20.6793 74.7729 20.1865 74.7729 19.7517C74.7729 19.288 74.7874 18.7952 74.8165 18.2735C74.8746 16.7662 75.1072 15.3894 75.5141 14.143C75.9501 12.8967 76.5459 11.8242 77.3016 10.9257C78.0863 9.99812 79.0455 9.28797 80.179 8.79522C81.3416 8.27348 82.6495 8.01261 84.1028 8.01261C85.6142 8.01261 86.9076 8.27348 87.983 8.79522C89.0584 9.28797 89.9449 9.94015 90.6424 10.7517V1.27348C90.6424 0.954639 90.7442 0.69377 90.9476 0.490873C91.1511 0.287973 91.4127 0.186523 91.7324 0.186523H96.2229C96.5136 0.186523 96.7606 0.287973 96.9641 0.490873C97.1675 0.69377 97.2693 0.954639 97.2693 1.27348V29.9691C97.2693 30.288 97.1675 30.5488 96.9641 30.7517C96.7606 30.9546 96.5136 31.0561 96.2229 31.0561H92.0376C91.7469 31.0561 91.4998 30.9546 91.2964 30.7517C91.0929 30.5488 90.9912 30.288 90.9912 29.9691V28.4909C90.2646 29.3604 89.349 30.0851 88.2446 30.6648C87.1401 31.2155 85.7595 31.4909 84.1028 31.4909ZM86.1083 26.2735C87.1837 26.2735 88.0411 26.0271 88.6805 25.5343C89.349 25.0416 89.8286 24.4184 90.1193 23.6648C90.439 22.9112 90.6134 22.0996 90.6424 21.23C90.7006 20.6793 90.7296 20.1286 90.7296 19.5778C90.7296 19.0271 90.7006 18.4909 90.6424 17.9691C90.6134 17.1575 90.439 16.4039 90.1193 15.7083C89.7995 14.9836 89.3054 14.3894 88.6369 13.9257C87.9975 13.4619 87.1546 13.23 86.1083 13.23C85.0038 13.23 84.1319 13.4764 83.4924 13.9691C82.853 14.4329 82.3879 15.0561 82.0973 15.8387C81.8357 16.6213 81.6759 17.4764 81.6177 18.4039C81.5305 19.3025 81.5305 20.201 81.6177 21.0996C81.6759 22.0271 81.8357 22.8822 82.0973 23.6648C82.3879 24.4474 82.853 25.0851 83.4924 25.5778C84.1319 26.0416 85.0038 26.2735 86.1083 26.2735Z" fill="#370FA9"/>
<path d="M104.369 30.4348C104.137 30.4348 103.933 30.3478 103.759 30.1739C103.585 30 103.497 29.7971 103.497 29.5652C103.497 29.4203 103.512 29.2609 103.541 29.087L114.353 0.956522C114.47 0.666668 114.629 0.434784 114.833 0.260871C115.036 0.0869571 115.342 0 115.748 0H118.713C119.091 0 119.382 0.0869571 119.585 0.260871C119.818 0.434784 119.992 0.666668 120.108 0.956522L130.877 29.087C130.935 29.2609 130.964 29.4203 130.964 29.5652C130.964 29.7971 130.877 30 130.702 30.1739C130.528 30.3478 130.325 30.4348 130.092 30.4348H127.869C127.52 30.4348 127.258 30.3478 127.084 30.1739C126.938 30 126.837 29.8406 126.779 29.6957L124.381 23.5217H110.081L107.683 29.6957C107.654 29.8406 107.552 30 107.378 30.1739C107.203 30.3478 106.942 30.4348 106.593 30.4348H104.369ZM111.345 19.7826H123.116L117.231 4.34783L111.345 19.7826Z" fill="black"/>
<path d="M144.09 40C142.113 40 140.486 39.7391 139.207 39.2174C137.957 38.6957 136.969 38.058 136.242 37.3043C135.544 36.5797 135.036 35.8406 134.716 35.087C134.425 34.3623 134.266 33.7826 134.237 33.3478C134.207 33.058 134.295 32.8116 134.498 32.6087C134.731 32.4058 134.978 32.3043 135.239 32.3043H137.332C137.594 32.3043 137.812 32.3623 137.986 32.4783C138.16 32.5942 138.306 32.8406 138.422 33.2174C138.596 33.6522 138.858 34.1304 139.207 34.6522C139.555 35.2029 140.093 35.6667 140.82 36.0435C141.546 36.4493 142.564 36.6522 143.872 36.6522C145.238 36.6522 146.386 36.4638 147.316 36.087C148.246 35.7391 148.943 35.1015 149.408 34.1739C149.903 33.2754 150.15 32.029 150.15 30.4348V27.4783C149.452 28.3768 148.537 29.1304 147.403 29.7391C146.269 30.3188 144.845 30.6087 143.13 30.6087C141.503 30.6087 140.108 30.3333 138.945 29.7826C137.782 29.2029 136.823 28.4348 136.068 27.4783C135.341 26.4928 134.789 25.3768 134.411 24.1304C134.062 22.8841 133.859 21.5797 133.801 20.2174C133.771 19.4058 133.771 18.6087 133.801 17.8261C133.859 16.4638 134.062 15.1594 134.411 13.913C134.789 12.6667 135.341 11.5507 136.068 10.5652C136.823 9.57971 137.782 8.81159 138.945 8.26087C140.108 7.68116 141.503 7.3913 143.13 7.3913C144.874 7.3913 146.313 7.72464 147.447 8.3913C148.609 9.02899 149.554 9.8116 150.28 10.7391V8.86957C150.28 8.57971 150.368 8.33333 150.542 8.13044C150.745 7.92754 150.993 7.82609 151.283 7.82609H153.289C153.579 7.82609 153.826 7.92754 154.03 8.13044C154.233 8.33333 154.335 8.57971 154.335 8.86957V29.9565C154.335 31.8985 154.001 33.6232 153.332 35.1304C152.693 36.6377 151.617 37.8261 150.106 38.6957C148.624 39.5652 146.618 40 144.09 40ZM144.002 27.1304C145.456 27.1304 146.618 26.7971 147.49 26.1304C148.391 25.4638 149.045 24.6232 149.452 23.6087C149.888 22.5942 150.121 21.5652 150.15 20.5217C150.179 20.1159 150.193 19.6232 150.193 19.0435C150.193 18.4348 150.179 17.9275 150.15 17.5217C150.121 16.4783 149.888 15.4493 149.452 14.4348C149.045 13.4203 148.391 12.5797 147.49 11.913C146.618 11.2464 145.456 10.913 144.002 10.913C142.549 10.913 141.387 11.2464 140.515 11.913C139.643 12.5507 139.018 13.4058 138.64 14.4783C138.262 15.5217 138.044 16.6522 137.986 17.8696C137.957 18.6232 137.957 19.3913 137.986 20.1739C138.044 21.3913 138.262 22.5362 138.64 23.6087C139.018 24.6522 139.643 25.5072 140.515 26.1739C141.387 26.8116 142.549 27.1304 144.002 27.1304Z" fill="black"/>
<path d="M169.842 30.8696C166.848 30.8696 164.465 29.9565 162.692 28.1304C160.919 26.2754 159.945 23.7536 159.771 20.5652C159.742 20.1884 159.727 19.7101 159.727 19.1304C159.727 18.5217 159.742 18.029 159.771 17.6522C159.887 15.5942 160.367 13.7971 161.209 12.2609C162.052 10.6957 163.2 9.49275 164.654 8.65217C166.136 7.81159 167.865 7.3913 169.842 7.3913C172.051 7.3913 173.896 7.85507 175.379 8.78261C176.89 9.71014 178.038 11.029 178.823 12.7391C179.608 14.4493 180 16.4493 180 18.7391V19.4783C180 19.7971 179.898 20.0435 179.695 20.2174C179.52 20.3913 179.288 20.4783 178.997 20.4783H163.912C163.912 20.5072 163.912 20.5652 163.912 20.6522C163.912 20.7391 163.912 20.8116 163.912 20.8696C163.971 22.058 164.232 23.1739 164.697 24.2174C165.162 25.2319 165.831 26.058 166.703 26.6957C167.575 27.3333 168.621 27.6522 169.842 27.6522C170.888 27.6522 171.76 27.4928 172.458 27.1739C173.155 26.8551 173.722 26.5072 174.158 26.1304C174.594 25.7246 174.885 25.4203 175.03 25.2174C175.291 24.8406 175.495 24.6232 175.64 24.5652C175.786 24.4783 176.018 24.4348 176.338 24.4348H178.43C178.721 24.4348 178.954 24.5217 179.128 24.6957C179.332 24.8406 179.419 25.058 179.39 25.3478C179.361 25.7826 179.128 26.3188 178.692 26.9565C178.256 27.5652 177.631 28.1739 176.817 28.7826C176.004 29.3913 175.015 29.8986 173.853 30.3043C172.69 30.6812 171.353 30.8696 169.842 30.8696ZM163.912 17.4783H175.858V17.3478C175.858 16.0435 175.611 14.8841 175.117 13.8696C174.652 12.8551 173.969 12.058 173.068 11.4783C172.167 10.8696 171.092 10.5652 169.842 10.5652C168.592 10.5652 167.517 10.8696 166.616 11.4783C165.744 12.058 165.075 12.8551 164.61 13.8696C164.145 14.8841 163.912 16.0435 163.912 17.3478V17.4783Z" fill="black"/>
</svg>
