<svg width="66" height="66" viewBox="0 0 66 66" fill="none" xmlns="http://www.w3.org/2000/svg">
<g filter="url(#filter0_d_45_533)">
<circle cx="33" cy="30" r="20" fill="white"/>
</g>
<path d="M26.125 25.4166C26.2908 25.4166 26.4497 25.3508 26.5669 25.2336C26.6842 25.1164 26.75 24.9574 26.75 24.7916C26.75 24.6259 26.6842 24.4669 26.5669 24.3497C26.4497 24.2325 26.2908 24.1666 26.125 24.1666C25.9592 24.1666 25.8003 24.2325 25.6831 24.3497C25.5658 24.4669 25.5 24.6259 25.5 24.7916C25.5 24.9574 25.5658 25.1164 25.6831 25.2336C25.8003 25.3508 25.9592 25.4166 26.125 25.4166ZM28.625 24.7916C28.625 24.9574 28.5592 25.1164 28.4419 25.2336C28.3247 25.3508 28.1658 25.4166 28 25.4166C27.8342 25.4166 27.6753 25.3508 27.5581 25.2336C27.4408 25.1164 27.375 24.9574 27.375 24.7916C27.375 24.6259 27.4408 24.4669 27.5581 24.3497C27.6753 24.2325 27.8342 24.1666 28 24.1666C28.1658 24.1666 28.3247 24.2325 28.4419 24.3497C28.5592 24.4669 28.625 24.6259 28.625 24.7916ZM29.875 25.4166C30.0408 25.4166 30.1997 25.3508 30.3169 25.2336C30.4342 25.1164 30.5 24.9574 30.5 24.7916C30.5 24.6259 30.4342 24.4669 30.3169 24.3497C30.1997 24.2325 30.0408 24.1666 29.875 24.1666C29.7092 24.1666 29.5503 24.2325 29.4331 24.3497C29.3158 24.4669 29.25 24.6259 29.25 24.7916C29.25 24.9574 29.3158 25.1164 29.4331 25.2336C29.5503 25.3508 29.7092 25.4166 29.875 25.4166Z" fill="#2BA528"/>
<path d="M25.5 21.6666C24.837 21.6666 24.2011 21.93 23.7322 22.3989C23.2634 22.8677 23 23.5036 23 24.1666V36.6666C23 37.3297 23.2634 37.9655 23.7322 38.4344C24.2011 38.9032 24.837 39.1666 25.5 39.1666H40.5C41.163 39.1666 41.7989 38.9032 42.2678 38.4344C42.7366 37.9655 43 37.3297 43 36.6666V24.1666C43 23.5036 42.7366 22.8677 42.2678 22.3989C41.7989 21.93 41.163 21.6666 40.5 21.6666H25.5ZM40.5 22.9166C40.8315 22.9166 41.1495 23.0483 41.3839 23.2827C41.6183 23.5172 41.75 23.8351 41.75 24.1666V26.6666H24.25V24.1666C24.25 23.8351 24.3817 23.5172 24.6161 23.2827C24.8505 23.0483 25.1685 22.9166 25.5 22.9166H40.5ZM24.25 36.6666V27.9166H29.25V37.9166H25.5C25.1685 37.9166 24.8505 37.7849 24.6161 37.5505C24.3817 37.3161 24.25 36.9981 24.25 36.6666ZM30.5 37.9166V27.9166H41.75V36.6666C41.75 36.9981 41.6183 37.3161 41.3839 37.5505C41.1495 37.7849 40.8315 37.9166 40.5 37.9166H30.5Z" fill="#2BA528"/>
<defs>
<filter id="filter0_d_45_533" x="0" y="0" width="66" height="66" filterUnits="userSpaceOnUse" color-interpolation-filters="sRGB">
<feFlood flood-opacity="0" result="BackgroundImageFix"/>
<feColorMatrix in="SourceAlpha" type="matrix" values="0 0 0 0 0 0 0 0 0 0 0 0 0 0 0 0 0 0 127 0" result="hardAlpha"/>
<feOffset dy="3"/>
<feGaussianBlur stdDeviation="6.5"/>
<feColorMatrix type="matrix" values="0 0 0 0 0.458824 0 0 0 0 0.815686 0 0 0 0 0.45098 0 0 0 0.2 0"/>
<feBlend mode="normal" in2="BackgroundImageFix" result="effect1_dropShadow_45_533"/>
<feBlend mode="normal" in="SourceGraphic" in2="effect1_dropShadow_45_533" result="shape"/>
</filter>
</defs>
</svg>
