<svg width="86" height="86" viewBox="0 0 86 86" fill="none" xmlns="http://www.w3.org/2000/svg">
<g filter="url(#filter0_d_83_3467)">
<circle cx="43" cy="40" r="30" fill="white"/>
</g>
<path d="M32.6875 33.125C32.9361 33.125 33.1746 33.0262 33.3504 32.8504C33.5262 32.6746 33.625 32.4361 33.625 32.1875C33.625 31.9389 33.5262 31.7004 33.3504 31.5246C33.1746 31.3488 32.9361 31.25 32.6875 31.25C32.4389 31.25 32.2004 31.3488 32.0246 31.5246C31.8488 31.7004 31.75 31.9389 31.75 32.1875C31.75 32.4361 31.8488 32.6746 32.0246 32.8504C32.2004 33.0262 32.4389 33.125 32.6875 33.125ZM36.4375 32.1875C36.4375 32.4361 36.3387 32.6746 36.1629 32.8504C35.9871 33.0262 35.7486 33.125 35.5 33.125C35.2514 33.125 35.0129 33.0262 34.8371 32.8504C34.6613 32.6746 34.5625 32.4361 34.5625 32.1875C34.5625 31.9389 34.6613 31.7004 34.8371 31.5246C35.0129 31.3488 35.2514 31.25 35.5 31.25C35.7486 31.25 35.9871 31.3488 36.1629 31.5246C36.3387 31.7004 36.4375 31.9389 36.4375 32.1875ZM38.3125 33.125C38.5611 33.125 38.7996 33.0262 38.9754 32.8504C39.1512 32.6746 39.25 32.4361 39.25 32.1875C39.25 31.9389 39.1512 31.7004 38.9754 31.5246C38.7996 31.3488 38.5611 31.25 38.3125 31.25C38.0639 31.25 37.8254 31.3488 37.6496 31.5246C37.4738 31.7004 37.375 31.9389 37.375 32.1875C37.375 32.4361 37.4738 32.6746 37.6496 32.8504C37.8254 33.0262 38.0639 33.125 38.3125 33.125Z" fill="#FFB13D"/>
<path d="M31.75 27.5C30.7554 27.5 29.8016 27.8951 29.0983 28.5983C28.3951 29.3016 28 30.2554 28 31.25V50C28 50.9946 28.3951 51.9484 29.0983 52.6516C29.8016 53.3549 30.7554 53.75 31.75 53.75H54.25C55.2446 53.75 56.1984 53.3549 56.9016 52.6516C57.6049 51.9484 58 50.9946 58 50V31.25C58 30.2554 57.6049 29.3016 56.9016 28.5983C56.1984 27.8951 55.2446 27.5 54.25 27.5H31.75ZM54.25 29.375C54.7473 29.375 55.2242 29.5725 55.5758 29.9242C55.9275 30.2758 56.125 30.7527 56.125 31.25V35H29.875V31.25C29.875 30.7527 30.0725 30.2758 30.4242 29.9242C30.7758 29.5725 31.2527 29.375 31.75 29.375H54.25ZM29.875 50V36.875H37.375V51.875H31.75C31.2527 51.875 30.7758 51.6774 30.4242 51.3258C30.0725 50.9742 29.875 50.4973 29.875 50ZM39.25 51.875V36.875H56.125V50C56.125 50.4973 55.9275 50.9742 55.5758 51.3258C55.2242 51.6774 54.7473 51.875 54.25 51.875H39.25Z" fill="#FFB13D"/>
<defs>
<filter id="filter0_d_83_3467" x="0" y="0" width="86" height="86" filterUnits="userSpaceOnUse" color-interpolation-filters="sRGB">
<feFlood flood-opacity="0" result="BackgroundImageFix"/>
<feColorMatrix in="SourceAlpha" type="matrix" values="0 0 0 0 0 0 0 0 0 0 0 0 0 0 0 0 0 0 127 0" result="hardAlpha"/>
<feOffset dy="3"/>
<feGaussianBlur stdDeviation="6.5"/>
<feColorMatrix type="matrix" values="0 0 0 0 0.458824 0 0 0 0 0.815686 0 0 0 0 0.45098 0 0 0 0.2 0"/>
<feBlend mode="normal" in2="BackgroundImageFix" result="effect1_dropShadow_83_3467"/>
<feBlend mode="normal" in="SourceGraphic" in2="effect1_dropShadow_83_3467" result="shape"/>
</filter>
</defs>
</svg>
