<svg width="66" height="66" viewBox="0 0 66 66" fill="none" xmlns="http://www.w3.org/2000/svg">
<g filter="url(#filter0_d_45_501)">
<circle cx="33" cy="30" r="20" fill="white"/>
</g>
<path d="M40.9825 25.7124C41.0992 25.3249 40.9825 25.0408 40.4308 25.0408H38.6033C38.1383 25.0408 37.9258 25.2866 37.8092 25.5566C37.8092 25.5566 36.88 27.8224 35.5633 29.2916C35.1383 29.7191 34.9442 29.8541 34.7125 29.8541C34.5967 29.8541 34.4283 29.7191 34.4283 29.3316V25.7124C34.4283 25.2474 34.2942 25.0408 33.9067 25.0408H31.035C30.745 25.0408 30.57 25.2558 30.57 25.4608C30.57 25.9008 31.2283 26.0024 31.2958 27.2424V29.9324C31.2958 30.5216 31.19 30.6291 30.9567 30.6291C30.3375 30.6291 28.8308 28.3549 27.9367 25.7516C27.7625 25.2458 27.5867 25.0416 27.12 25.0416H25.2933C24.7708 25.0416 24.6667 25.2874 24.6667 25.5574C24.6667 26.0424 25.2858 28.4424 27.5508 31.6166C29.0608 33.7841 31.1867 34.9591 33.1233 34.9591C34.2842 34.9591 34.4275 34.6983 34.4275 34.2483V32.6099C34.4275 32.0883 34.5383 31.9833 34.9058 31.9833C35.1758 31.9833 35.6408 32.1199 36.725 33.1641C37.9633 34.4024 38.1683 34.9583 38.8642 34.9583H40.6908C41.2125 34.9583 41.4733 34.6974 41.3233 34.1824C41.1592 33.6699 40.5675 32.9241 39.7825 32.0416C39.3558 31.5383 38.7183 30.9966 38.5242 30.7258C38.2533 30.3766 38.3317 30.2224 38.5242 29.9124C38.525 29.9133 40.7508 26.7783 40.9825 25.7124Z" fill="#1488DC"/>
<defs>
<filter id="filter0_d_45_501" x="0" y="0" width="66" height="66" filterUnits="userSpaceOnUse" color-interpolation-filters="sRGB">
<feFlood flood-opacity="0" result="BackgroundImageFix"/>
<feColorMatrix in="SourceAlpha" type="matrix" values="0 0 0 0 0 0 0 0 0 0 0 0 0 0 0 0 0 0 127 0" result="hardAlpha"/>
<feOffset dy="3"/>
<feGaussianBlur stdDeviation="6.5"/>
<feColorMatrix type="matrix" values="0 0 0 0 0.313725 0 0 0 0 0.635294 0 0 0 0 0.866667 0 0 0 0.2 0"/>
<feBlend mode="normal" in2="BackgroundImageFix" result="effect1_dropShadow_45_501"/>
<feBlend mode="normal" in="SourceGraphic" in2="effect1_dropShadow_45_501" result="shape"/>
</filter>
</defs>
</svg>
